<mxfile host="app.diagrams.net" modified="2023-10-05T19:08:26.001Z" agent="Mozilla/5.0 (Windows NT 10.0; Win64; x64) AppleWebKit/537.36 (KHTML, like Gecko) Chrome/117.0.0.0 Safari/537.36" etag="7Yh34QMm1xGB5kph-Nn4" version="22.0.2" type="google">
  <diagram name="Page-1" id="jK76-55BbjkENlzdVKWb">
    <mxGraphModel dx="1290" dy="542" grid="1" gridSize="10" guides="1" tooltips="1" connect="1" arrows="1" fold="1" page="1" pageScale="1" pageWidth="850" pageHeight="1100" math="0" shadow="0">
      <root>
        <mxCell id="0" />
        <mxCell id="1" parent="0" />
        <mxCell id="M6WQzY7kBWubp99zS0Y8-2" value="Policy Holder Mangement" style="html=1;dashed=0;whiteSpace=wrap;" parent="1" vertex="1">
          <mxGeometry x="90" y="280" width="160" height="50" as="geometry" />
        </mxCell>
        <mxCell id="M6WQzY7kBWubp99zS0Y8-5" value="Claim Management" style="rounded=0;whiteSpace=wrap;html=1;" parent="1" vertex="1">
          <mxGeometry x="90" y="550" width="160" height="50" as="geometry" />
        </mxCell>
        <mxCell id="M6WQzY7kBWubp99zS0Y8-6" value="Car Management" style="rounded=0;whiteSpace=wrap;html=1;" parent="1" vertex="1">
          <mxGeometry x="90" y="370" width="160" height="50" as="geometry" />
        </mxCell>
        <mxCell id="M6WQzY7kBWubp99zS0Y8-7" value="Policy Management" style="rounded=0;whiteSpace=wrap;html=1;" parent="1" vertex="1">
          <mxGeometry x="90" y="460" width="160" height="50" as="geometry" />
        </mxCell>
        <mxCell id="M6WQzY7kBWubp99zS0Y8-8" value="Payment Management" style="rounded=0;whiteSpace=wrap;html=1;" parent="1" vertex="1">
          <mxGeometry x="90" y="640" width="160" height="50" as="geometry" />
        </mxCell>
        <mxCell id="M6WQzY7kBWubp99zS0Y8-9" value="Login Management" style="rounded=0;whiteSpace=wrap;html=1;" parent="1" vertex="1">
          <mxGeometry x="90" y="190" width="160" height="50" as="geometry" />
        </mxCell>
        <mxCell id="M6WQzY7kBWubp99zS0Y8-20" value="Check User Login Details" style="html=1;dashed=0;whiteSpace=wrap;" parent="1" vertex="1">
          <mxGeometry x="650" y="190" width="150" height="50" as="geometry" />
        </mxCell>
        <mxCell id="M6WQzY7kBWubp99zS0Y8-21" value="Generate Policy Holder Report" style="html=1;dashed=0;whiteSpace=wrap;" parent="1" vertex="1">
          <mxGeometry x="650" y="280" width="150" height="50" as="geometry" />
        </mxCell>
        <mxCell id="M6WQzY7kBWubp99zS0Y8-22" value="Generate Report" style="html=1;dashed=0;whiteSpace=wrap;" parent="1" vertex="1">
          <mxGeometry x="650" y="370" width="150" height="50" as="geometry" />
        </mxCell>
        <mxCell id="M6WQzY7kBWubp99zS0Y8-23" value="Generate Policy Report" style="html=1;dashed=0;whiteSpace=wrap;" parent="1" vertex="1">
          <mxGeometry x="650" y="460" width="150" height="50" as="geometry" />
        </mxCell>
        <mxCell id="M6WQzY7kBWubp99zS0Y8-24" value="Generate Claim Report" style="html=1;dashed=0;whiteSpace=wrap;" parent="1" vertex="1">
          <mxGeometry x="650" y="550" width="150" height="50" as="geometry" />
        </mxCell>
        <mxCell id="M6WQzY7kBWubp99zS0Y8-25" value="Generate Payment Report" style="html=1;dashed=0;whiteSpace=wrap;" parent="1" vertex="1">
          <mxGeometry x="650" y="640" width="150" height="50" as="geometry" />
        </mxCell>
        <mxCell id="M6WQzY7kBWubp99zS0Y8-29" value="" style="endArrow=classic;html=1;rounded=0;exitX=1;exitY=0.5;exitDx=0;exitDy=0;entryX=0.244;entryY=0.072;entryDx=0;entryDy=0;entryPerimeter=0;" parent="1" source="M6WQzY7kBWubp99zS0Y8-9" target="M6WQzY7kBWubp99zS0Y8-1" edge="1">
          <mxGeometry width="50" height="50" relative="1" as="geometry">
            <mxPoint x="420" y="480" as="sourcePoint" />
            <mxPoint x="470" y="430" as="targetPoint" />
          </mxGeometry>
        </mxCell>
        <mxCell id="M6WQzY7kBWubp99zS0Y8-30" value="" style="endArrow=classic;html=1;rounded=0;exitX=1;exitY=0.5;exitDx=0;exitDy=0;entryX=0.083;entryY=0.273;entryDx=0;entryDy=0;entryPerimeter=0;" parent="1" source="M6WQzY7kBWubp99zS0Y8-2" target="M6WQzY7kBWubp99zS0Y8-1" edge="1">
          <mxGeometry width="50" height="50" relative="1" as="geometry">
            <mxPoint x="420" y="480" as="sourcePoint" />
            <mxPoint x="410" y="400" as="targetPoint" />
          </mxGeometry>
        </mxCell>
        <mxCell id="M6WQzY7kBWubp99zS0Y8-31" value="" style="endArrow=classic;html=1;rounded=0;exitX=1;exitY=0.5;exitDx=0;exitDy=0;entryX=0;entryY=0.5;entryDx=0;entryDy=0;" parent="1" source="M6WQzY7kBWubp99zS0Y8-6" target="M6WQzY7kBWubp99zS0Y8-1" edge="1">
          <mxGeometry width="50" height="50" relative="1" as="geometry">
            <mxPoint x="420" y="480" as="sourcePoint" />
            <mxPoint x="470" y="430" as="targetPoint" />
          </mxGeometry>
        </mxCell>
        <mxCell id="M6WQzY7kBWubp99zS0Y8-32" value="" style="endArrow=classic;html=1;rounded=0;entryX=-0.01;entryY=0.64;entryDx=0;entryDy=0;entryPerimeter=0;exitX=1;exitY=0.5;exitDx=0;exitDy=0;" parent="1" source="M6WQzY7kBWubp99zS0Y8-7" target="M6WQzY7kBWubp99zS0Y8-1" edge="1">
          <mxGeometry width="50" height="50" relative="1" as="geometry">
            <mxPoint x="270" y="570" as="sourcePoint" />
            <mxPoint x="320" y="520" as="targetPoint" />
          </mxGeometry>
        </mxCell>
        <mxCell id="M6WQzY7kBWubp99zS0Y8-33" value="" style="endArrow=classic;html=1;rounded=0;exitX=1;exitY=0.5;exitDx=0;exitDy=0;entryX=0.084;entryY=0.776;entryDx=0;entryDy=0;entryPerimeter=0;" parent="1" source="M6WQzY7kBWubp99zS0Y8-5" target="M6WQzY7kBWubp99zS0Y8-1" edge="1">
          <mxGeometry width="50" height="50" relative="1" as="geometry">
            <mxPoint x="420" y="480" as="sourcePoint" />
            <mxPoint x="470" y="430" as="targetPoint" />
          </mxGeometry>
        </mxCell>
        <mxCell id="M6WQzY7kBWubp99zS0Y8-34" value="" style="endArrow=classic;html=1;rounded=0;exitX=1;exitY=0.5;exitDx=0;exitDy=0;" parent="1" source="M6WQzY7kBWubp99zS0Y8-1" edge="1">
          <mxGeometry width="50" height="50" relative="1" as="geometry">
            <mxPoint x="420" y="480" as="sourcePoint" />
            <mxPoint x="470" y="430" as="targetPoint" />
          </mxGeometry>
        </mxCell>
        <mxCell id="M6WQzY7kBWubp99zS0Y8-35" value="" style="endArrow=classic;html=1;rounded=0;exitX=1;exitY=0.5;exitDx=0;exitDy=0;entryX=0.225;entryY=0.939;entryDx=0;entryDy=0;entryPerimeter=0;" parent="1" source="M6WQzY7kBWubp99zS0Y8-8" target="M6WQzY7kBWubp99zS0Y8-1" edge="1">
          <mxGeometry width="50" height="50" relative="1" as="geometry">
            <mxPoint x="250" y="665" as="sourcePoint" />
            <mxPoint x="470" y="430" as="targetPoint" />
          </mxGeometry>
        </mxCell>
        <mxCell id="M6WQzY7kBWubp99zS0Y8-1" value="Car insurance management system" style="shape=ellipse;html=1;dashed=0;whiteSpace=wrap;perimeter=ellipsePerimeter;" parent="1" vertex="1">
          <mxGeometry x="390" y="390" width="120" height="110" as="geometry" />
        </mxCell>
        <mxCell id="M6WQzY7kBWubp99zS0Y8-36" value="" style="endArrow=classic;html=1;rounded=0;entryX=0;entryY=0.5;entryDx=0;entryDy=0;exitX=0.963;exitY=0.263;exitDx=0;exitDy=0;exitPerimeter=0;" parent="1" source="M6WQzY7kBWubp99zS0Y8-1" target="M6WQzY7kBWubp99zS0Y8-21" edge="1">
          <mxGeometry width="50" height="50" relative="1" as="geometry">
            <mxPoint x="420" y="480" as="sourcePoint" />
            <mxPoint x="470" y="430" as="targetPoint" />
          </mxGeometry>
        </mxCell>
        <mxCell id="M6WQzY7kBWubp99zS0Y8-37" value="" style="endArrow=classic;html=1;rounded=0;entryX=0;entryY=0.5;entryDx=0;entryDy=0;" parent="1" target="M6WQzY7kBWubp99zS0Y8-20" edge="1">
          <mxGeometry width="50" height="50" relative="1" as="geometry">
            <mxPoint x="490" y="400" as="sourcePoint" />
            <mxPoint x="470" y="430" as="targetPoint" />
          </mxGeometry>
        </mxCell>
        <mxCell id="M6WQzY7kBWubp99zS0Y8-38" value="" style="endArrow=classic;html=1;rounded=0;entryX=0;entryY=0.5;entryDx=0;entryDy=0;exitX=1;exitY=0.5;exitDx=0;exitDy=0;" parent="1" source="M6WQzY7kBWubp99zS0Y8-1" target="M6WQzY7kBWubp99zS0Y8-22" edge="1">
          <mxGeometry width="50" height="50" relative="1" as="geometry">
            <mxPoint x="420" y="480" as="sourcePoint" />
            <mxPoint x="470" y="430" as="targetPoint" />
          </mxGeometry>
        </mxCell>
        <mxCell id="M6WQzY7kBWubp99zS0Y8-39" value="" style="endArrow=classic;html=1;rounded=0;entryX=0;entryY=0.5;entryDx=0;entryDy=0;exitX=0.963;exitY=0.665;exitDx=0;exitDy=0;exitPerimeter=0;" parent="1" source="M6WQzY7kBWubp99zS0Y8-1" target="M6WQzY7kBWubp99zS0Y8-23" edge="1">
          <mxGeometry width="50" height="50" relative="1" as="geometry">
            <mxPoint x="510" y="470" as="sourcePoint" />
            <mxPoint x="470" y="430" as="targetPoint" />
          </mxGeometry>
        </mxCell>
        <mxCell id="M6WQzY7kBWubp99zS0Y8-40" value="" style="endArrow=classic;html=1;rounded=0;entryX=0;entryY=0.5;entryDx=0;entryDy=0;" parent="1" target="M6WQzY7kBWubp99zS0Y8-24" edge="1">
          <mxGeometry width="50" height="50" relative="1" as="geometry">
            <mxPoint x="500" y="480" as="sourcePoint" />
            <mxPoint x="470" y="430" as="targetPoint" />
          </mxGeometry>
        </mxCell>
        <mxCell id="M6WQzY7kBWubp99zS0Y8-41" value="" style="endArrow=classic;html=1;rounded=0;entryX=0;entryY=0.5;entryDx=0;entryDy=0;exitX=0.775;exitY=0.922;exitDx=0;exitDy=0;exitPerimeter=0;" parent="1" source="M6WQzY7kBWubp99zS0Y8-1" target="M6WQzY7kBWubp99zS0Y8-25" edge="1">
          <mxGeometry width="50" height="50" relative="1" as="geometry">
            <mxPoint x="420" y="480" as="sourcePoint" />
            <mxPoint x="470" y="430" as="targetPoint" />
          </mxGeometry>
        </mxCell>
        <mxCell id="M6WQzY7kBWubp99zS0Y8-42" value="&lt;font style=&quot;font-size: 16px;&quot;&gt;&lt;b&gt;&lt;u&gt;!st Level DFD of Car Insurance Management System&lt;/u&gt;&lt;/b&gt;&lt;/font&gt;" style="text;strokeColor=none;align=center;fillColor=none;html=1;verticalAlign=middle;whiteSpace=wrap;rounded=0;" parent="1" vertex="1">
          <mxGeometry x="250" y="800" width="420" height="30" as="geometry" />
        </mxCell>
      </root>
    </mxGraphModel>
  </diagram>
</mxfile>
